<svg width="280" height="104" viewBox="0 0 280 104" fill="none" xmlns="http://www.w3.org/2000/svg">
<g clip-path="url(#clip0_1_66)">
<path fill-rule="evenodd" clip-rule="evenodd" d="M40.7765 20.2497L40.7788 20.2538C28.7646 29.2239 20.1826 42.5356 18.0917 56.7021C17.6968 59.3773 17.5474 62 17.6232 64.5513C16.0319 63.7688 14.5406 62.8486 13.1547 61.8089C13.1594 62.0244 13.1616 62.2407 13.1692 62.4552C6.4072 57.9942 1.8033 50.7188 0.397461 41.9745C1.14519 34.4226 3.38017 27.0199 6.79423 20.2167L6.79825 20.2196C6.95306 19.8837 7.27521 19.6374 7.66899 19.6074C8.24793 19.5633 8.75267 19.9987 8.79668 20.58C8.79876 20.6087 8.79459 20.6359 8.79459 20.6641L8.80278 20.6636C8.57763 25.1942 9.74113 29.4348 12.0755 33.2149C20.2727 27.5262 29.4646 22.427 39.4246 18.0943C39.592 18.0137 39.7788 17.9671 39.9768 17.9671C40.6826 17.9671 41.2548 18.5414 41.2548 19.2497C41.2548 19.654 41.0682 20.0138 40.7772 20.2489L40.7765 20.2497Z" fill="url(#paint0_linear_1_66)"/>
<path fill-rule="evenodd" clip-rule="evenodd" d="M107.352 64.035C106.585 65.2912 106.396 66.7328 107.084 68.3823C110.816 77.326 115.381 82.5929 118.053 85.4061V85.4425C118.587 85.7191 118.847 86.2079 118.847 86.7668C118.847 87.6304 118.228 88.3305 117.465 88.3305C117.325 88.3305 117.189 88.3063 117.061 88.262C115.747 88.1472 109.314 87.5551 102.833 86.4324C102.827 86.4293 102.822 86.4259 102.817 86.4229C102.559 86.3901 102.333 86.2521 102.169 86.0443C102.133 86.0033 102.097 85.957 102.057 85.8988C100.946 84.9756 96.8892 80.6643 94.6198 76.8018C94.5769 76.6938 94.5125 76.6096 94.4286 76.5469C94.096 76.147 93.6253 75.8958 93.1019 75.8958C92.3073 75.8958 91.6334 76.4721 91.3834 77.2746C90.4972 77.7302 89.5144 78.3236 88.542 78.955V64.0355H107.352V64.035Z" fill="url(#paint1_linear_1_66)"/>
<path fill-rule="evenodd" clip-rule="evenodd" d="M116.869 6.84723C116.865 6.87625 116.859 6.90495 116.855 6.93398L116.831 7.12166L116.796 7.31257C116.761 7.52605 116.72 7.7376 116.68 7.94947H116.689C116.209 10.4763 115.397 12.8638 114.118 15.0136L114.116 15.012C114.116 15.012 113.7 15.5337 113.499 15.8006C113.222 16.2256 112.933 16.6416 112.63 17.0452C112.853 16.7032 113.084 16.3662 113.325 16.0366H113.322C113.078 16.3694 112.843 16.7088 112.617 17.0549C112.078 18.0475 111.526 18.9886 111.062 19.8572C110.148 21.8108 109.513 23.8915 109.226 26.0234C109.135 26.6967 109.084 27.3604 109.065 28.0145C109.115 28.1617 109.144 28.3044 109.144 28.4397C109.144 29.774 109.526 32.0512 110.114 34.984C110.396 36.1383 110.639 37.3102 110.845 38.4984C110.857 38.5566 110.869 38.613 110.882 38.6717C110.909 38.8201 110.929 38.9557 110.947 39.0853C111.043 39.6833 111.132 40.2846 111.209 40.8907C113.594 59.7478 105.563 77.3471 91.583 88.5356C95.2635 94.5792 99.1283 98.4548 101.736 100.764V100.803C102.2 101.095 102.51 101.613 102.51 102.204C102.51 103.117 101.773 103.858 100.863 103.858C100.695 103.858 100.533 103.832 100.38 103.785C98.8132 103.664 91.1412 103.038 83.4105 101.85C83.4089 101.849 83.4078 101.848 83.4062 101.848C83.0736 101.815 82.7805 101.647 82.5809 101.401C82.5502 101.367 82.5186 101.329 82.486 101.286C81.7071 100.712 79.7157 98.9008 77.6568 96.6761C72.6742 98.6895 67.3018 100.033 61.6462 100.574C32.969 103.315 6.69262 84.522 1.15695 57.1516C-0.250175 50.1931 -0.191076 43.2845 1.12403 36.7225C1.16144 53.5318 12.8991 66.6761 30.3746 67.076C50.6961 67.5411 68.7693 51.5651 74.0657 28.6621C74.0829 28.5879 74.0975 28.5142 74.1141 28.4402H74.1537C75.8204 20.6002 77.8867 13.0521 83.9596 6.77435H84.029C87.3264 3.11436 93.2435 0.640446 98.6952 0.210418C100.764 0.0470813 102.714 0.224446 104.482 0.68656V0.678176C107.191 1.35748 110.553 1.72124 114.18 1.61934C114.709 1.6045 115.228 1.57951 115.738 1.54613V1.55694C116.424 1.58015 116.973 2.14337 116.973 2.83638C116.973 2.83767 116.972 2.83896 116.972 2.84009H116.985C117.086 4.12001 117.055 5.4596 116.868 6.84868L116.869 6.84723Z" fill="url(#paint2_radial_1_66)"/>
<path opacity="0.702" fill-rule="evenodd" clip-rule="evenodd" d="M101.5 100.553C101.58 100.624 101.659 100.694 101.736 100.763C101.659 100.694 101.58 100.624 101.5 100.553ZM101.47 100.525C101.238 100.317 100.997 100.097 100.748 99.8642C100.997 100.097 101.238 100.317 101.47 100.525ZM100.694 99.8142C100.627 99.7518 100.559 99.688 100.491 99.6236C100.559 99.6878 100.627 99.7518 100.694 99.8142ZM99.2207 98.379C99.1648 98.3222 99.1086 98.2648 99.0522 98.2071C99.1086 98.2648 99.165 98.3224 99.2207 98.379ZM98.4558 97.5857C98.4057 97.5325 98.3556 97.4796 98.3051 97.4258C98.3556 97.4796 98.4057 97.5327 98.4558 97.5857ZM83.4001 101.845C83.3481 101.84 83.2975 101.83 83.2475 101.818C83.2999 101.816 83.3508 101.825 83.4001 101.845ZM81.6695 100.614C81.693 100.635 81.7155 100.654 81.7384 100.674C81.7155 100.654 81.6931 100.635 81.6695 100.614ZM81.8916 100.805C81.9165 100.826 81.9409 100.847 81.9652 100.867C81.9409 100.847 81.9165 100.826 81.8916 100.805ZM80.2036 99.2674C80.2203 99.2836 80.2369 99.2994 80.2534 99.3152C80.2369 99.2992 80.2203 99.2836 80.2036 99.2674ZM80.8354 99.8632C80.8483 99.8752 80.8616 99.8874 80.8744 99.8993C80.8616 99.8874 80.8484 99.8752 80.8354 99.8632ZM77.6573 96.6747C72.6747 98.6881 67.3023 100.032 61.6467 100.572C44.2817 102.232 27.7984 95.9939 16.2661 84.7377C25.2513 91.8805 36.48 96.2239 48.682 96.2132C56.69 96.2063 64.1934 94.2987 70.7941 90.8984C70.8091 90.8986 70.8234 90.8989 70.8381 90.8991C71.1225 90.7622 71.4399 90.6832 71.7763 90.6832C72.3944 90.6832 72.9511 90.9432 73.3469 91.3589C73.4725 91.446 73.5652 91.546 73.6169 91.6617C74.7335 93.347 76.2127 95.1128 77.6586 96.6749V96.6747H77.6573ZM114.118 15.0129L114.117 15.0113C114.117 15.0113 113.701 15.5331 113.5 15.7999C113.223 16.225 112.934 16.641 112.63 17.0446C112.689 16.9544 112.75 16.8657 112.81 16.7764C112.935 16.5905 113.062 16.4056 113.193 16.2235C113.237 16.1611 113.281 16.0978 113.326 16.036H113.323C113.278 16.0973 113.237 16.1618 113.193 16.2235C113.062 16.4059 112.935 16.5902 112.81 16.7764C112.747 16.8698 112.679 16.9597 112.618 17.0542C112.079 18.0468 111.526 18.988 111.062 19.8566C110.149 21.8102 109.513 23.8908 109.227 26.0227C109.136 26.6961 109.085 27.3597 109.066 28.0139C109.115 28.1611 109.145 28.3038 109.145 28.4391C109.145 29.7733 109.526 32.0505 110.115 34.9833C110.397 36.1377 110.64 37.3096 110.845 38.4977C110.858 38.5559 110.87 38.6124 110.882 38.6711C110.909 38.8194 110.93 38.955 110.947 39.0847C111.044 39.6827 111.133 40.284 111.21 40.8901C113.595 59.7471 105.564 77.3449 91.5852 88.5334C90.6509 86.9988 89.7281 85.3271 88.841 83.5033C88.0128 82.2345 87.5296 80.7183 87.5296 79.088C87.5296 77.3101 88.1039 75.6673 89.0745 74.334H89.054C93.5878 67.3546 96.4355 59.0797 97.0326 50.0658C97.3226 45.6884 97.0602 41.3115 96.2894 37.033H96.3501C96.0041 35.0861 95.9833 33.0193 96.3274 30.8816C97.8275 21.5625 105.934 13.0403 116.231 9.93321C115.743 11.7281 115.057 13.4349 114.118 15.0126L114.118 15.0129Z" fill="url(#paint3_radial_1_66)"/>
</g>
<path d="M157.355 36.0173H164.545C165.994 36.0173 167.797 36.0861 169.952 36.2237C172.367 36.3237 174.089 36.9553 175.117 38.1183C176.157 39.2814 176.677 41.1573 176.677 43.746C176.677 46.0972 176.293 47.8543 175.525 49.0173C174.758 50.1679 173.445 50.9432 171.587 51.3434C169.63 51.7811 165.901 52 160.402 52C156.042 52 153.07 51.9187 151.484 51.7561C149.899 51.5936 148.549 51.2309 147.434 50.6681C145.861 49.8427 145.074 47.9168 145.074 44.8903C145.074 44.5635 145.361 44.3135 145.685 44.3135H151.953C152.357 44.3135 152.653 44.6409 152.759 45.0348C152.809 45.2206 152.873 45.2722 152.952 45.4531C153.1 45.7532 153.404 45.9909 153.862 46.1659C154.444 46.4161 156.166 46.5411 159.027 46.5411C161.418 46.5411 163.201 46.5224 164.378 46.4848C165.555 46.4473 166.527 46.3348 167.295 46.1472C168.075 45.9596 168.558 45.7282 168.744 45.4531C168.942 45.1655 169.041 44.734 169.041 44.1587C169.041 43.0582 168.608 42.3704 167.741 42.0952C167.283 41.9452 166.837 41.8576 166.403 41.8326C165.982 41.7951 164.818 41.7763 162.91 41.7763H155.906C153.577 41.7763 151.819 41.7013 150.629 41.5512C149.453 41.4012 148.462 41.1073 147.657 40.6696C145.886 39.7441 145 37.5806 145 34.1789C145 31.8778 145.365 30.1708 146.096 29.0577C146.827 27.9322 148.109 27.1568 149.942 26.7316C151.899 26.2439 155.41 26 160.476 26C164.886 26 167.902 26.0875 169.524 26.2626C171.159 26.4377 172.404 26.8254 173.259 27.4257C174.151 28.0135 174.764 28.7888 175.098 29.7518C175.391 30.5533 175.56 31.3053 175.606 32.5801C175.621 33.0045 175.277 33.3489 174.857 33.3489H168.906C168.466 33.3489 168.161 32.9347 167.92 32.5632C167.751 32.3016 167.466 32.1197 167.091 31.9654C166.434 31.6777 164.849 31.5339 162.334 31.5339C159.287 31.5339 156.959 31.5839 155.349 31.684C154.308 31.759 153.59 31.9591 153.193 32.2843C152.797 32.5969 152.599 33.1159 152.599 33.8413C152.599 34.8918 153.144 35.5546 154.234 35.8297C154.742 35.9548 155.782 36.0173 157.355 36.0173Z" fill="white"/>
<path d="M183.96 51.8124C182.488 51.8124 181.294 50.6075 181.294 49.1213V28.8787C181.294 27.3925 182.488 26.1876 183.96 26.1876H208.922C209.342 26.1876 209.683 26.5318 209.683 26.9565V31.2152C209.683 31.6399 209.342 31.9841 208.922 31.9841H188.912V36.4113H208.922C209.342 36.4113 209.683 36.7555 209.683 37.1802V40.7073C209.683 41.1319 209.342 41.4762 208.922 41.4762H188.912V46.0159H208.922C209.342 46.0159 209.683 46.3601 209.683 46.7848V51.0435C209.683 51.4682 209.342 51.8124 208.922 51.8124H183.96Z" fill="white"/>
<path d="M214.372 51.8124C213.79 51.8124 213.423 51.1792 213.708 50.6667L226.902 26.9717C227.172 26.4874 227.68 26.1876 228.23 26.1876H236.785C237.342 26.1876 237.854 26.494 238.121 26.9868L250.967 50.6742C251.245 51.1866 250.878 51.8124 250.299 51.8124H243.58C243.303 51.8124 243.048 51.6605 242.914 51.4158L240.623 47.2352H224.255L222.036 51.4072C221.904 51.6567 221.646 51.8124 221.365 51.8124H214.372ZM227.042 41.9076H237.929L232.448 31.684L227.042 41.9076Z" fill="white"/>
<path d="M257.091 51.8124C255.83 51.8124 254.807 50.7797 254.807 49.5057V26.9565C254.807 26.5318 255.148 26.1876 255.568 26.1876H261.774C262.195 26.1876 262.536 26.5318 262.536 26.9565V45.4719H279.238C279.659 45.4719 280 45.8161 280 46.2408V51.0435C280 51.4682 279.659 51.8124 279.238 51.8124H257.091Z" fill="white"/>
<path d="M159.206 70.0674H157.713C157.7 69.11 157.498 68.4672 157.106 68.1392C156.546 67.6705 155.047 67.4362 152.607 67.4362C150.871 67.4362 149.595 67.5065 148.78 67.6471C147.971 67.781 147.405 68.0253 147.081 68.3802C146.764 68.7351 146.605 69.2975 146.605 70.0674C146.605 70.9713 146.867 71.5538 147.39 71.8149C147.719 71.9823 148.152 72.0861 148.687 72.1263C149.222 72.1664 150.408 72.1932 152.243 72.2066C154.284 72.22 155.65 72.2635 156.341 72.3372C157.038 72.4041 157.623 72.5514 158.096 72.7791C158.606 73.0536 158.976 73.4385 159.206 73.934C159.437 74.4295 159.552 75.1023 159.552 75.9527C159.552 77.7872 158.933 78.9589 157.694 79.4677C156.792 79.8226 155.015 80 152.365 80C149.589 80 147.729 79.8293 146.783 79.4878C145.6 79.0325 145.006 78.045 145 76.5251V75.5811H146.531V75.9527C146.531 76.6356 146.609 77.1444 146.764 77.4792C146.926 77.8073 147.212 78.0383 147.623 78.1722C148.351 78.4333 149.835 78.5638 152.075 78.5638C153.793 78.5638 155.05 78.4969 155.846 78.363C156.643 78.2224 157.193 77.9713 157.498 77.6098C157.809 77.2415 157.965 76.6624 157.965 75.8723C157.965 75.2965 157.875 74.8647 157.694 74.5768C157.514 74.2889 157.209 74.0746 156.78 73.934C156.356 73.8135 155.865 73.7432 155.305 73.7231C154.745 73.703 153.03 73.6796 150.162 73.6528C149.004 73.6394 148.13 73.5791 147.539 73.472C146.954 73.3582 146.465 73.164 146.073 72.8895C145.694 72.615 145.42 72.2702 145.252 71.8551C145.084 71.4333 145 70.8843 145 70.208C145 68.1927 145.734 66.9608 147.203 66.5122C148.248 66.1707 150.043 66 152.589 66C155.339 66 157.119 66.2745 157.928 66.8235C158.401 67.1382 158.724 67.5198 158.898 67.9684C159.079 68.4103 159.181 69.11 159.206 70.0674Z" fill="#00C2FF"/>
<path d="M164.296 79.8594V66.1406H176.991V67.5165H165.827V72.1062H176.589V73.4017H165.827V78.4835H177.093V79.8594H164.296Z" fill="#00C2FF"/>
<path d="M196.446 75.2496V75.8321C196.446 76.6557 196.396 77.2817 196.296 77.7102C196.203 78.1387 196.035 78.5069 195.792 78.8149C195.332 79.4041 194.573 79.7523 193.515 79.8594C192.662 79.9531 191.122 80 188.894 80C186.586 80 185.015 79.923 184.181 79.769C183.347 79.6083 182.694 79.2669 182.221 78.7446C181.81 78.2893 181.539 77.6901 181.409 76.9469C181.278 76.2037 181.213 74.8914 181.213 73.01C181.213 70.8876 181.312 69.4247 181.511 68.6212C181.717 67.8178 182.137 67.1951 182.771 66.7532C183.257 66.4385 183.944 66.2343 184.834 66.1406C185.73 66.0469 187.473 66 190.061 66C191.629 66 192.768 66.0536 193.477 66.1607C194.193 66.2678 194.747 66.472 195.139 66.7733C195.575 67.1014 195.873 67.5232 196.035 68.0387C196.203 68.5543 196.299 69.3611 196.324 70.4591H194.84V70.1076C194.84 69.6657 194.818 69.3176 194.775 69.0631C194.738 68.802 194.638 68.561 194.476 68.34C194.321 68.1191 194.131 67.9584 193.907 67.858C193.689 67.7575 193.334 67.6705 192.843 67.5968C192.351 67.5165 191.822 67.4696 191.256 67.4562C190.69 67.4429 189.921 67.4362 188.95 67.4362C188.198 67.4362 187.637 67.4362 187.27 67.4362C186.909 67.4362 186.474 67.4562 185.964 67.4964C185.46 67.5366 185.108 67.5634 184.909 67.5768C184.71 67.5901 184.458 67.6705 184.153 67.8178C183.848 67.9584 183.652 68.0655 183.565 68.1392C183.484 68.2061 183.366 68.3802 183.21 68.6614C183.061 68.9426 182.977 69.1736 182.958 69.3544C182.939 69.5285 182.905 69.8498 182.855 70.3185C182.812 70.7805 182.79 71.1755 182.79 71.5036C182.79 71.825 182.79 72.3271 182.79 73.01C182.79 74.5701 182.834 75.6748 182.921 76.3242C183.014 76.967 183.195 77.4323 183.462 77.7202C183.767 78.0617 184.255 78.2893 184.928 78.4032C185.606 78.5103 186.838 78.5638 188.624 78.5638C189.669 78.5638 190.494 78.5571 191.097 78.5438C191.707 78.5304 192.276 78.4902 192.805 78.4232C193.334 78.3496 193.714 78.2659 193.944 78.1722C194.181 78.0784 194.389 77.9244 194.57 77.7102C194.75 77.4959 194.859 77.2683 194.896 77.0273C194.934 76.7795 194.952 76.4481 194.952 76.033V75.2496H196.446Z" fill="#00C2FF"/>
<path d="M216.125 66.1406V75.4605C216.125 76.7059 216.059 77.5127 215.929 77.8809C215.649 78.7446 215.033 79.3137 214.081 79.5882C213.135 79.8627 211.312 80 208.611 80C206.421 80 204.859 79.9264 203.925 79.7791C202.998 79.6251 202.323 79.3305 201.9 78.8953C201.464 78.44 201.209 77.8274 201.134 77.0574C201.109 76.8364 201.097 76.3042 201.097 75.4605V66.1406H202.628V75.1693C202.628 76.1 202.653 76.6758 202.702 76.8967C202.814 77.4055 203.032 77.7704 203.356 77.9914C203.686 78.2056 204.227 78.3563 204.98 78.4433C205.733 78.5237 206.943 78.5638 208.611 78.5638C210.639 78.5638 212.015 78.5069 212.737 78.3931C213.465 78.2726 213.956 78.0215 214.211 77.6399C214.379 77.3922 214.485 77.1344 214.529 76.8666C214.572 76.5988 214.594 76.033 214.594 75.1693V66.1406H216.125Z" fill="#00C2FF"/>
<path d="M221.261 79.8594V66.1406H231.781C232.752 66.1406 233.492 66.2209 234.002 66.3816C234.519 66.5356 234.945 66.8034 235.281 67.1851C235.804 67.8144 236.065 68.8656 236.065 70.3386C236.065 71.8584 235.726 72.8326 235.048 73.2611C234.656 73.4955 234.037 73.6528 233.19 73.7331C233.918 73.8269 234.447 73.9641 234.777 74.1449C235.468 74.5399 235.813 75.2597 235.813 76.3042V79.8594H234.282V77.2482C234.282 76.0564 234.117 75.2798 233.788 74.9182C233.57 74.6839 233.305 74.5265 232.994 74.4462C232.683 74.3659 232.201 74.3257 231.548 74.3257H222.792V79.8594H221.261ZM222.792 73.0301H231.184C232.496 73.0301 233.374 72.846 233.816 72.4778C234.258 72.1028 234.478 71.363 234.478 70.2582C234.478 69.1736 234.251 68.4472 233.797 68.0789C233.343 67.704 232.44 67.5165 231.09 67.5165H222.792V73.0301Z" fill="#00C2FF"/>
<path d="M240.922 79.8594V66.1406H242.453V79.8594H240.922Z" fill="#00C2FF"/>
<path d="M252.872 79.8594V67.5165H246.395V66.1406H260.862V67.5165H254.403V79.8594H252.872Z" fill="#00C2FF"/>
<path d="M271.077 79.8594V74.1047L263.675 66.1406H265.775L271.842 72.7389L277.9 66.1406H280L272.598 74.1047V79.8594H271.077Z" fill="#00C2FF"/>
<defs>
<linearGradient id="paint0_linear_1_66" x1="20.8261" y1="17.9671" x2="20.8261" y2="64.5513" gradientUnits="userSpaceOnUse">
<stop stop-color="#045ACD"/>
<stop offset="1" stop-color="#1B1D89"/>
</linearGradient>
<linearGradient id="paint1_linear_1_66" x1="104.032" y1="74.0714" x2="118.996" y2="88.2917" gradientUnits="userSpaceOnUse">
<stop stop-color="#3CA6EC"/>
<stop offset="1" stop-color="#0D6ED8"/>
</linearGradient>
<radialGradient id="paint2_radial_1_66" cx="0" cy="0" r="1" gradientUnits="userSpaceOnUse" gradientTransform="translate(127.686 -12.2346) rotate(139.474) scale(151.245 102.558)">
<stop stop-color="#FEFFFF"/>
<stop offset="0.489583" stop-color="#69DCFF"/>
<stop offset="1" stop-color="#0260D3"/>
</radialGradient>
<radialGradient id="paint3_radial_1_66" cx="0" cy="0" r="1" gradientUnits="userSpaceOnUse" gradientTransform="translate(116.007 9.72716) rotate(131.317) scale(98.6224 60.4022)">
<stop stop-color="#04A5FF"/>
<stop offset="1" stop-color="#1B1D89"/>
</radialGradient>
<clipPath id="clip0_1_66">
<rect width="119" height="104" fill="white"/>
</clipPath>
</defs>
</svg>
