<?xml version="1.0" encoding="utf-8"?>
<!-- Generator: Adobe Illustrator 25.1.0, SVG Export Plug-In . SVG Version: 6.00 Build 0)  -->
<svg version="1.1" id="Layer_1" xmlns="http://www.w3.org/2000/svg" xmlns:xlink="http://www.w3.org/1999/xlink" x="0px" y="0px"
	 viewBox="0 0 2000 485.1" style="enable-background:new 0 0 2000 485.1;" xml:space="preserve">
<style type="text/css">
	.st0{fill:#222222;}
</style>
<g>
	<path class="st0" d="M0,485.1h485.1V0H0V485.1z M99.9,351.5l41.8-7.2V145.8l-41.8-7.2v-32.4h87l3.5,41.3
		c8.6-14.1,20.4-25.8,34.6-34.1c14.5-8.2,31-12.4,47.7-12.1c25.9-1.6,51.3,8,69.6,26.4c16.4,17.5,24.3,44.5,24.3,81.2v135.6
		l41.9,7.2l0.2,32.3H275.2v-32.3l40.7-7.2V209.6c0-24.3-4.9-41.8-14.6-52c-11.9-11.2-27.9-16.8-44.1-15.4
		c-13.6-0.2-27.1,3.4-38.8,10.4c-11.2,7.1-20.4,17.1-26.7,28.8v162.9l41.8,7.2v32.3H99.9V351.5z"/>
	<path class="st0" d="M807,222c1.7-21-4-42-16.2-59.2c-12-13.2-29.4-20.1-47.1-19c-12.8-0.3-25.5,3.2-36.4,9.8
		c-10.5,6.9-18.8,16.5-24.3,27.8l-1.7-34.1h-47.4v15.5l28.7,2.2v155l-28.7,2.3v15.3h78.4v-15.3l-28.7-2.3V209.7
		c2.9-13.1,9.5-25.1,19-34.5c10.2-9.2,23.6-13.9,37.3-13.2c13-0.8,25.7,4.2,34.7,13.6c9.4,13.6,13.7,30.1,12.1,46.5v98l-28.7,2.3
		v15.3h77.6v-15.3l-28.7-2.3V222z"/>
	<path class="st0" d="M1036,239.8c0.3-17.1-3.3-34.1-10.4-49.7c-6.5-13.8-16.7-25.5-29.4-33.8c-27.2-16.6-61.5-16.6-88.7,0
		c-12.7,8.3-22.9,20.1-29.3,33.9c-7.3,15.5-10.9,32.5-10.6,49.6v5.8c-0.3,17.2,3.3,34.1,10.6,49.7c6.4,13.8,16.5,25.6,29.3,33.9
		c13.4,8.3,28.9,12.5,44.6,12.1c15.6,0.3,30.9-4,44.1-12.3c12.7-8.3,22.9-19.9,29.4-33.7c7.2-15.6,10.8-32.6,10.4-49.8V239.8z
		 M1007.3,285.2c-4.5,11.2-12,20.9-21.6,28.2c-9.8,7-21.6,10.7-33.7,10.3c-12.2,0.4-24.2-3.2-34.1-10.3
		c-9.7-7.2-17.1-16.9-21.6-28.1c-5.2-12.6-7.7-26.2-7.5-39.8v-5.8c-0.2-13.6,2.4-27,7.5-39.6c4.5-11.2,12-20.9,21.6-28.1
		c9.8-7.1,21.7-10.8,33.8-10.4c12.1-0.3,24,3.4,33.9,10.4c9.7,7.2,17.2,16.9,21.7,28.1c5.1,12.6,7.7,26,7.5,39.6v5.8
		C1015.1,259.1,1012.5,272.6,1007.3,285.2z"/>
	<path class="st0" d="M1239.9,222c1.7-21-4.1-42-16.3-59.2c-12-13.2-29.4-20.1-47.1-19c-12.8-0.2-25.5,3.2-36.4,9.8
		c-10.5,6.9-18.9,16.5-24.3,27.8l-1.8-34.1h-47.3v15.5l28.7,2.2v155l-28.7,2.3v15.3h78.1v-15.3l-28.7-2.3V209.7
		c2.9-13.1,9.5-25.1,19.1-34.5c10.2-9.2,23.6-14,37.3-13.2c13-0.8,25.7,4.2,34.6,13.6c9.4,13.6,13.7,30.1,12.1,46.5v98l-28.7,2.3
		v15.3h77.9v-15.3l-28.5-2.3V222z"/>
	<path class="st0" d="M1446.5,310.5c0-3.6,0-7.4,0-11.2v-91.8c1-17.5-5.6-34.5-18.1-46.8c-14.5-12-33-18.1-51.8-16.9
		c-12.1-0.2-24.1,1.9-35.5,6.1c-10.2,3.9-19.7,9.5-28.1,16.6v40h17.5l2.7-28.9c5.8-4.7,12.2-8.5,19.1-11.3
		c7.9-3.1,16.4-4.6,24.9-4.5c13.3-1,26.4,3.4,36.4,12.1c8.3,9,12.7,20.9,12.1,33.2V229h-39.4c-15.2-0.4-30.2,2.2-44.5,7.4
		c-11.4,4.1-21.4,11.2-28.9,20.7c-6.8,8.8-10.4,19.7-10.2,30.9c-0.7,14.6,4.9,28.8,15.3,39c11.7,10.2,26.9,15.4,42.4,14.5
		c12.9,0,25.7-3.4,36.9-9.7c11-6,20.4-14.6,27.5-24.9c0.1,5.2,1,10,1,14.2c0.5,4.2,1.5,9.8,2.9,16.8h41.5v-15.3l-22.7-1
		C1447.1,317.8,1446.7,314.2,1446.5,310.5z M1425.2,285.2c-5.6,11.5-14.6,21.1-25.8,27.3c-11,6.7-23.6,10.2-36.4,10.3h-0.5
		c-10.2,0.2-20.1-3.3-27.8-10c-6.9-6.2-10.8-15-10.6-24.3c-0.3-12.4,5.7-24.2,15.8-31.3c13.5-8.9,29.5-13.2,45.7-12.1h39.6V285.2z"
		/>
	<path class="st0" d="M1792.5,226.3c1.7-22.2-4.1-44.3-16.6-62.7c-11.6-13.8-29-21.3-47-20.3c-14-0.3-27.7,3.9-39,12.1
		c-11.1,8.2-19.5,19.4-24.3,32.3c-3.1-13.1-10.5-24.7-20.9-33.2c-10.7-7.4-23.5-11.2-36.4-10.8c-12.8-0.3-25.4,3-36.4,9.5
		c-10.4,6.4-18.8,15.6-24.3,26.6l-1.8-32.6h-47.5v15.5l28.7,2.2v155l-28.7,2.3v15.3h78.6v-15.8l-28.5-2.3V206.5
		c2.6-12.4,8.8-23.6,17.9-32.4c10.1-8.7,23.2-13.1,36.4-12.1c13.2-0.6,25.9,4.9,34.5,14.9c9.6,14.6,13.9,32.1,12.1,49.4v93.8
		l-28.5,2.3v15.3h78.6v-15.3l-28.7-2.3V217.3c1.1-14.6,6.7-28.5,15.9-39.8c9.7-10.8,23.8-16.5,38.3-15.7
		c13.1-0.7,25.8,4.7,34.4,14.6c9.6,14.8,13.9,32.4,12.1,49.9v93.5l-28.7,2.3v14.9h78.6v-15.3l-28.7-2.3V226.3z"/>
	<path class="st0" d="M1991.1,182.2c-5.5-11.8-14.4-21.7-25.5-28.4c-12.2-7-26.1-10.5-40.1-10.1c-14.3-0.2-28.4,4.1-40.2,12.1
		c-12.3,8.6-22.1,20.2-28.5,33.7c-7.3,15.2-10.9,31.8-10.6,48.6v9.7c-0.3,16.8,3.3,33.5,10.6,48.6c6.5,13.4,16.7,24.8,29.3,32.8
		c12.9,8.1,27.8,12.4,43,12.1h0.6c23.9,0.9,47.2-7.9,64.6-24.3l-9-14.5c-7.1,6.6-15.3,11.9-24.3,15.5c-10,4-20.8,6-31.6,5.7
		c-11.4,0.2-22.6-3.1-32.1-9.5c-9.4-6.5-16.9-15.5-21.5-26c-5.3-11.9-7.9-24.7-7.8-37.7V243H2000v-17.9
		C2000.3,210.3,1997.3,195.7,1991.1,182.2z M1978.7,225.4h-109.3l-0.4-1.1c0.9-11.2,4.1-22.1,9.4-32.1c4.6-9,11.4-16.7,19.8-22.4
		c8-5.5,17.5-8.4,27.2-8.3c10.1-0.3,20,2.4,28.5,7.7c8,5,14.4,12.2,18.3,20.8c4.4,9.4,6.6,19.6,6.4,30V225.4z"/>
</g>
</svg>
