<svg width="133" height="42" viewBox="0 0 133 42" fill="none" xmlns="http://www.w3.org/2000/svg">
<path fill-rule="evenodd" clip-rule="evenodd" d="M14.4264 2.65281C13.6728 3.49401 13.2179 4.29819 12.9732 5.0515C12.5473 6.3632 12.7205 7.64037 13.2592 8.88505C13.8047 10.1453 14.7124 11.3393 15.6988 12.4262C16.3548 13.1493 16.9985 13.7774 17.5838 14.3484C17.8953 14.6524 18.1901 14.9401 18.4617 15.2176L18.4615 15.2178C19.0943 15.8438 19.7361 16.4161 20.3402 16.9546C22.9909 19.3177 24.9134 21.0317 22.1391 23.7906L20.2095 25.7097C20.455 25.9565 20.7342 26.2252 21.0434 26.5227L21.0439 26.5229C21.1529 26.6277 21.2657 26.7364 21.382 26.8488C21.8681 27.3181 22.4017 27.8417 22.9309 28.4087C23.9831 29.5359 25.0574 30.8742 25.7323 32.3706C26.2404 33.4965 26.5295 34.7302 26.4033 36.0311L26.865 35.572H26.866H26.867L32.8979 29.5743L34.0269 28.4516C37.9802 24.5202 37.9802 18.1464 34.0269 14.215L26.7008 6.92935L26.7002 6.92874L22.3688 2.62149C20.1842 0.4491 16.6424 0.44908 14.458 2.62147L14.4264 2.65281Z" fill="url(#paint0_linear_459_20862)"/>
<path fill-rule="evenodd" clip-rule="evenodd" d="M23.0654 39.3472C23.819 38.5058 24.2741 37.7016 24.5186 36.9483C24.9445 35.6366 24.7715 34.3596 24.2328 33.1148C23.6873 31.8545 22.7794 30.6605 21.7932 29.5736C21.1372 28.8505 20.4935 28.2224 19.9082 27.6514C19.5967 27.3476 19.3017 27.0597 19.0301 26.7822L19.0305 26.782C18.3977 26.156 17.7559 25.5837 17.1516 25.0452C14.5011 22.6821 12.5784 20.9681 15.3527 18.2092L17.2825 16.2903C17.037 16.0433 16.7576 15.7746 16.4484 15.4773L16.4481 15.4771V15.4769C16.339 15.3721 16.2263 15.2636 16.1098 15.1512C15.6237 14.6817 15.0903 14.1581 14.5608 13.5911C13.5089 12.4641 12.4346 11.1256 11.7595 9.62945C11.2516 8.50327 10.9625 7.26962 11.0887 5.96875L10.6268 6.42805H10.626H10.625L4.59409 12.4255L3.46491 13.5482C-0.488304 17.4796 -0.488304 23.8536 3.46491 27.7848L10.7912 35.0705L10.7918 35.0711L15.1232 39.3784C17.3076 41.5507 20.8494 41.5509 23.034 39.3784L23.0654 39.3472Z" fill="url(#paint1_linear_459_20862)"/>
<path d="M67.8468 2.92572C67.8468 2.65609 68.0654 2.4375 68.3351 2.4375H72.6673C72.937 2.4375 73.1556 2.65609 73.1556 2.92572V30.7218C73.1556 30.9915 72.937 31.21 72.6673 31.21H68.3351C68.0654 31.21 67.8468 30.9915 67.8468 30.7218V2.92572Z" fill="white"/>
<path fill-rule="evenodd" clip-rule="evenodd" d="M43.3281 21.5652C43.3281 15.5675 47.5427 11.3935 53.6214 11.3935C59.6596 11.3935 63.8741 15.5675 63.8741 21.5652C63.8741 27.5223 59.6596 31.6963 53.6214 31.6963C47.5427 31.6963 43.3281 27.5223 43.3281 21.5652ZM48.6369 21.5652C48.6369 24.6856 50.6631 26.8739 53.6214 26.8739C56.5392 26.8739 58.5654 24.6856 58.5654 21.5652C58.5654 18.4042 56.5392 16.2159 53.6214 16.2159C50.6631 16.2159 48.6369 18.4042 48.6369 21.5652Z" fill="white"/>
<path d="M84.2508 5.967C84.2508 7.75009 82.7919 9.0874 81.0088 9.0874C79.1852 9.0874 77.7668 7.75009 77.7668 5.967C77.7668 4.14339 79.1852 2.80608 81.0088 2.80608C82.7919 2.80608 84.2508 4.14339 84.2508 5.967Z" fill="white"/>
<path d="M78.3747 30.7218C78.3747 30.9915 78.5933 31.21 78.8629 31.21H83.1952C83.4648 31.21 83.6834 30.9915 83.6834 30.7218V12.368C83.6834 12.0983 83.4648 11.8798 83.1952 11.8798H78.8629C78.5933 11.8798 78.3747 12.0983 78.3747 12.368V30.7218Z" fill="white"/>
<path fill-rule="evenodd" clip-rule="evenodd" d="M103.627 11.8798C103.357 11.8798 103.139 12.0983 103.139 12.368V12.9334C101.639 11.9608 99.7347 11.3935 97.5868 11.3935C92.2376 11.3935 87.942 15.2838 87.942 21.0789C87.942 26.0634 92.2376 30.3995 97.5868 30.3995C99.7347 30.3995 101.639 29.8322 103.139 28.8596V30.3552C103.139 33.5161 101.153 35.2181 98.5594 35.2181C95.9984 35.2181 94.3474 33.9931 93.9318 32.161C93.877 31.9196 93.672 31.733 93.4244 31.733H88.9994C88.7138 31.733 88.488 31.9779 88.5281 32.2607C89.1782 36.8433 93.2106 40.0406 98.5594 40.0406C104.314 40.0406 108.447 36.3934 108.447 30.3552V12.368C108.447 12.0983 108.229 11.8798 107.959 11.8798H103.627ZM97.5589 25.7559C94.9773 25.3533 93.2507 23.1331 93.2507 21.0789C93.2507 17.999 95.358 15.9728 98.3973 15.9728C99.5898 15.9728 101.891 16.596 103.139 18.4828C103.587 19.2118 103.844 20.0744 103.844 21.0215C103.844 23.7933 101.537 25.8722 98.7179 25.8722C98.3178 25.8722 97.9301 25.8322 97.5589 25.7559Z" fill="white"/>
<path fill-rule="evenodd" clip-rule="evenodd" d="M122.244 11.3935C116.165 11.3935 111.951 15.5675 111.951 21.5652C111.951 27.5223 116.165 31.6963 122.244 31.6963C128.282 31.6963 132.497 27.5223 132.497 21.5652C132.497 15.5675 128.282 11.3935 122.244 11.3935ZM122.244 26.8739C119.286 26.8739 117.259 24.6856 117.259 21.5652C117.259 18.4042 119.286 16.2159 122.244 16.2159C125.162 16.2159 127.188 18.4042 127.188 21.5652C127.188 24.6856 125.162 26.8739 122.244 26.8739Z" fill="white"/>
<defs>
<linearGradient id="paint0_linear_459_20862" x1="15.771" y1="5.13339" x2="34.8605" y2="30.7884" gradientUnits="userSpaceOnUse">
<stop stop-color="#182D82"/>
<stop offset="1" stop-color="#5726F4"/>
</linearGradient>
<linearGradient id="paint1_linear_459_20862" x1="3.53661" y1="10.11" x2="20.4793" y2="41.0305" gradientUnits="userSpaceOnUse">
<stop stop-color="#4668F0"/>
<stop offset="1" stop-color="#591EF4"/>
</linearGradient>
</defs>
</svg>
