<svg width="156" height="23" viewBox="0 0 156 23" fill="none" xmlns="http://www.w3.org/2000/svg">
<path fill-rule="evenodd" clip-rule="evenodd" d="M57.2386 5.05664H52.5747L49.9399 9.20109L47.438 5.05664H42.5674L46.9589 11.9766L42.5674 18.4438L47.4555 18.477L57.2386 5.05664Z" fill="#1D164D"/>
<path fill-rule="evenodd" clip-rule="evenodd" d="M73.0713 10.7794C73.4705 8.19767 75.6796 6.7872 77.8087 6.7872C79.9912 6.7872 81.8276 8.19767 82.2002 10.7794H73.0713ZM77.8087 5.00391C74.1891 5.00391 71.022 7.71868 71.022 11.9238C71.022 16.1024 74.1891 18.7904 77.6756 18.7904C80.6299 18.7904 82.9188 17.3532 83.9568 14.6119L82.1469 14.186C81.2155 16.2886 79.5387 17.0072 77.6756 17.0072C75.4133 17.0072 73.1776 15.2506 72.9914 12.2964H84.2495V11.5511C84.1165 7.63878 81.3485 5.00391 77.8087 5.00391Z" fill="#1D164D"/>
<path fill-rule="evenodd" clip-rule="evenodd" d="M35.5141 15.2237C33.7842 15.2237 32.2139 13.8664 32.2139 11.7638C32.2139 9.68785 33.7842 8.30381 35.5141 8.30381C37.1643 8.30381 38.7345 9.68785 38.7345 11.7638C38.7345 13.8664 37.1643 15.2237 35.5141 15.2237ZM35.5141 4.7373C31.4686 4.7373 28.1152 7.55856 28.1152 11.7637C28.1152 15.9954 31.4686 18.8167 35.5141 18.8167C39.4797 18.8167 42.8332 15.9954 42.8332 11.7637C42.8332 7.55856 39.4797 4.7373 35.5141 4.7373Z" fill="#1D164D"/>
<path fill-rule="evenodd" clip-rule="evenodd" d="M66.0148 11.3115L62.8477 10.6195C61.5702 10.3268 60.8517 9.84775 60.8517 8.80972C60.8517 7.55889 61.8896 6.65407 63.7527 6.65407C65.6956 6.65407 66.9464 7.63878 67.2125 9.07584L69.1554 8.65008C68.6763 6.52085 66.7602 5.00391 63.8059 5.00391C60.7984 5.00391 58.8288 6.60075 58.8288 8.96936C58.8288 10.7793 60.0532 11.8705 62.2356 12.323L65.2431 12.9883C66.5738 13.281 67.3989 13.7868 67.3989 14.878C67.3989 16.2353 66.1479 17.1135 64.2583 17.1135C62.1824 17.1135 60.5854 16.1821 60.3992 14.4521L58.3765 14.9046C58.6957 17.4595 61.0912 18.7903 64.0986 18.7903C67.2392 18.7903 69.395 17.3265 69.395 14.7449C69.395 12.7487 67.9311 11.7373 66.0148 11.3115Z" fill="#1D164D"/>
<path fill-rule="evenodd" clip-rule="evenodd" d="M51.3281 16.3324L52.5743 18.4441H57.4715L53.7845 13.047L51.3281 16.3324Z" fill="#1D164D"/>
<path fill-rule="evenodd" clip-rule="evenodd" d="M111.484 11.6304C111.484 15.037 109.675 16.8736 106.933 16.8736C104.751 16.8736 103.314 15.25 103.314 12.8015V5.32275H101.264V13.1741C101.264 16.501 103.367 18.7631 106.534 18.7631C108.716 18.7631 110.42 17.8583 111.484 16.288V18.4172H113.534V5.32275H111.484V11.6304Z" fill="#1D164D"/>
<path fill-rule="evenodd" clip-rule="evenodd" d="M139.069 16.8738C137.605 16.8738 136.647 15.9156 136.647 14.2123V7.02629H141.331V5.32297H136.647V1.14441H134.598V5.32297H131.75V7.02629H134.598V14.3454C134.598 17.2464 136.328 18.7901 138.936 18.7901C140 18.7901 140.905 18.4972 141.97 17.752L141.305 16.0753C140.64 16.5543 139.814 16.8738 139.069 16.8738Z" fill="#1D164D"/>
<path fill-rule="evenodd" clip-rule="evenodd" d="M153.738 5.32324L148.947 15.8094L144.263 5.32324H141.974L147.856 18.2581L145.7 22.9689H147.962L156 5.32324H153.738Z" fill="#1D164D"/>
<mask id="mask0_329_2930" style="mask-type:alpha" maskUnits="userSpaceOnUse" x="127" y="0" width="4" height="3">
<path fill-rule="evenodd" clip-rule="evenodd" d="M127.514 0H130.309V2.71456H127.514V0Z" fill="white"/>
</mask>
<g mask="url(#mask0_329_2930)">
<path fill-rule="evenodd" clip-rule="evenodd" d="M128.898 0C128.1 0 127.514 0.638707 127.514 1.35731C127.514 2.12923 128.1 2.71462 128.898 2.71462C129.697 2.71462 130.309 2.12923 130.309 1.35731C130.309 0.638707 129.697 0 128.898 0Z" fill="#1D164D"/>
</g>
<path fill-rule="evenodd" clip-rule="evenodd" d="M127.887 18.4443H129.936V5.32324H127.887V18.4443Z" fill="#1D164D"/>
<path fill-rule="evenodd" clip-rule="evenodd" d="M119.499 8.54342V5.32315H117.45V18.4441H119.499V13.3873C119.499 9.84757 121.283 7.21269 124.769 7.21269C125.009 7.21269 125.302 7.21269 125.541 7.23927L125.701 5.29642C125.328 5.18994 125.089 5.18994 124.769 5.18994C122.347 5.18994 120.564 6.60057 119.499 8.54342Z" fill="#1D164D"/>
<path fill-rule="evenodd" clip-rule="evenodd" d="M92.6374 6.86687C94.5802 6.86687 96.3369 7.93148 96.9224 9.95408L98.8653 9.36869C98.0668 6.68049 95.5118 5.00391 92.6374 5.00391C88.9379 5.00391 85.7974 7.77169 85.7974 11.8971C85.7974 16.0756 88.9379 18.7903 92.6374 18.7903C95.5384 18.7903 98.1201 17.1401 98.8385 14.4521L96.9756 13.9464C96.3369 15.9159 94.5802 16.9006 92.6374 16.9006C89.9492 16.9006 87.7668 14.9577 87.7668 11.8971C87.7668 8.88962 89.9492 6.86687 92.6374 6.86687Z" fill="#1D164D"/>
<path fill-rule="evenodd" clip-rule="evenodd" d="M21.9659 1.60742V2.50702C21.9659 3.10977 21.7214 3.70008 21.2949 4.12645C20.8684 4.55297 20.2782 4.79742 19.6753 4.79742H16.3326C14.8998 4.79942 13.5135 5.3862 12.5126 6.41071C11.5116 5.38635 10.1254 4.79942 8.69238 4.79742H5.34981C4.7469 4.79742 4.15674 4.55297 3.73022 4.12645C3.30385 3.70008 3.05925 3.10977 3.05925 2.50702V1.60742H0V2.50702C0 5.45687 2.39995 7.85683 5.34981 7.85683H8.69238C11.4857 7.85683 12.4206 11.5654 12.4298 11.6029L12.5039 11.9079L12.615 11.6142C12.6291 11.5768 14.0603 7.85683 16.3327 7.85683H19.6753C22.6253 7.85683 25.0251 5.45687 25.0251 2.50702V1.60742H21.9659Z" fill="#6837FF"/>
<path fill-rule="evenodd" clip-rule="evenodd" d="M16.1238 9.63188L12.5199 15.6425L8.94898 9.64433L4.94727 9.62988L11.0853 19.6939L11.5645 19.7034C11.6969 19.706 11.8338 19.7071 11.9732 19.7071C12.1574 19.7071 12.3459 19.7054 12.5349 19.7035C12.7182 19.7018 12.9018 19.7002 13.081 19.7002C13.2077 19.7002 13.3324 19.7011 13.453 19.7034L13.9548 19.7132L20.0997 9.63803L16.1238 9.63188Z" fill="#6837FF"/>
</svg>
